<?xml version="1.0" encoding="utf-8"?>
<!-- Generator: Adobe Illustrator 20.1.0, SVG Export Plug-In . SVG Version: 6.00 Build 0)  -->
<svg version="1.1" id="Layer_1" xmlns="http://www.w3.org/2000/svg" xmlns:xlink="http://www.w3.org/1999/xlink" x="0px" y="0px"
	 viewBox="0 0 53 57" style="enable-background:new 0 0 53 57;" xml:space="preserve">
<style type="text/css">
	.st0{fill:#FFFFFF;}
</style>
<g>
	<path class="st0" d="M49.5,5.5c-4.7-4.7-12.3-4.7-17,0l-9.2,9.2c-0.4,0.4-0.4,1,0,1.4c0.4,0.4,1,0.4,1.4,0l9.2-9.2
		C35.8,5,38.3,4,41,4s5.2,1,7.1,2.9S51,11.3,51,14s-1,5.2-2.9,7.1l-12,12c-3.9,3.9-10.2,3.9-14.1,0c-0.4-0.4-1-0.4-1.4,0
		s-0.4,1,0,1.4c2.3,2.3,5.4,3.5,8.5,3.5s6.1-1.2,8.5-3.5l12-12c2.3-2.3,3.5-5.3,3.5-8.5C53,10.8,51.7,7.8,49.5,5.5z"/>
	<path class="st0" d="M26.8,42.3l-7.8,7.8C17.2,51.9,14.7,53,12,53s-5.2-1-7.1-2.9C1,46.2,1,39.8,4.9,35.9l11.3-11.3
		c3.9-3.9,10.2-3.9,14.1,0c0.4,0.4,1,0.4,1.4,0s0.4-1,0-1.4c-4.7-4.7-12.3-4.7-17,0L3.5,34.5C1.2,36.8,0,39.8,0,43
		c0,3.2,1.2,6.2,3.5,8.5S8.8,55,12,55s6.2-1.2,8.5-3.5l7.8-7.8c0.4-0.4,0.4-1,0-1.4S27.2,41.9,26.8,42.3z"/>
	<path class="st0" d="M34,46c-0.5,0-1,0.5-1,1v6c0,0.5,0.5,1,1,1s1-0.5,1-1v-6C35,46.5,34.5,46,34,46z"/>
	<path class="st0" d="M38.4,44.3c-0.4-0.4-1-0.4-1.4,0s-0.4,1,0,1.4l4.2,4.2c0.2,0.2,0.5,0.3,0.7,0.3s0.5-0.1,0.7-0.3
		c0.4-0.4,0.4-1,0-1.4L38.4,44.3z"/>
	<path class="st0" d="M45,40h-6c-0.5,0-1,0.5-1,1s0.5,1,1,1h6c0.5,0,1-0.5,1-1S45.5,40,45,40z"/>
	<path class="st0" d="M16,13c0.6,0,1-0.4,1-1V6c0-0.6-0.5-1-1-1s-1,0.4-1,1v6C15,12.6,15.4,13,16,13z"/>
	<path class="st0" d="M11.5,14.7c0.2,0.2,0.4,0.3,0.7,0.3s0.5-0.1,0.7-0.3c0.4-0.4,0.4-1,0-1.4L8.7,9.1c-0.4-0.4-1-0.4-1.4,0
		c-0.4,0.4-0.4,1,0,1.4L11.5,14.7z"/>
	<path class="st0" d="M5,19h6c0.6,0,1-0.5,1-1s-0.4-1-1-1H5c-0.6,0-1,0.4-1,1S4.4,19,5,19z"/>
</g>
</svg>
