<?xml version="1.0" encoding="utf-8"?>
<!-- Generator: Adobe Illustrator 20.1.0, SVG Export Plug-In . SVG Version: 6.00 Build 0)  -->
<svg version="1.1" id="Layer_1" xmlns="http://www.w3.org/2000/svg" xmlns:xlink="http://www.w3.org/1999/xlink" x="0px" y="0px"
	 viewBox="0 0 257.8 67" style="enable-background:new 0 0 257.8 67;" xml:space="preserve">
<style type="text/css">
	.st0{enable-background:new    ;}
	.st1{fill:#FFFFFF;}
	.st2{fill:none;stroke:#FFFFFF;stroke-width:2;stroke-miterlimit:10;}
	.st3{fill:#272425;}
	.st4{fill:#5596C3;}
</style>
<title>logo</title>
<g class="st0">
	<path class="st1" d="M13.8,34.9H1V34h0.4c1,0,1.7-0.1,2.1-0.4c0.4-0.3,0.7-0.6,0.8-1.1c0.1-0.4,0.1-1.2,0.1-2.2V16.1
		c0-0.8-0.1-1.4-0.2-1.9c-0.1-0.4-0.4-0.7-0.9-0.9C2.8,13.1,2,13,1,13v-0.9h12.4c1.1,0,2.1,0.1,3,0.4c0.9,0.3,1.7,0.7,2.3,1.2
		c0.6,0.5,1.1,1.1,1.5,1.8c0.4,0.7,0.5,1.5,0.5,2.3c0,0.9-0.2,1.7-0.7,2.4c-0.4,0.7-1.1,1.4-2,1.9c-0.9,0.5-2,0.8-3.3,1
		c2.1,0.3,3.8,1,4.9,2c1.1,1.1,1.7,2.4,1.7,4c0,0.8-0.2,1.6-0.5,2.3c-0.3,0.7-0.8,1.3-1.5,1.8c-0.7,0.5-1.4,0.9-2.4,1.2
		C16,34.7,15,34.9,13.8,34.9z M5.9,31.4V15.2c0-0.7-0.1-1.3-0.4-1.6C5.1,13.2,4.6,13,3.9,13H3.5c0.5,0.2,0.9,0.4,1,0.8
		s0.3,0.9,0.3,1.7v15.9c0,0.8-0.1,1.4-0.3,1.7c-0.2,0.3-0.5,0.6-1,0.8H4c0.8,0,1.3-0.2,1.6-0.7C5.8,32.7,5.9,32.1,5.9,31.4z
		 M8.3,22.7h3c1.4,0,2.5-0.2,3.1-0.5c0.6-0.3,1.1-0.9,1.5-1.6c0.4-0.8,0.6-1.6,0.6-2.6c0-0.8-0.1-1.5-0.4-2.2
		c-0.2-0.7-0.6-1.2-1-1.7c-0.5-0.5-1-0.8-1.5-0.9C13,13.1,12.3,13,11.4,13c-1.2,0-2,0.2-2.4,0.6s-0.6,1-0.6,1.9V22.7z M8.3,23.6v7.8
		c0,0.5,0.1,1,0.2,1.3c0.1,0.3,0.3,0.6,0.6,0.8c0.3,0.2,0.7,0.3,1.1,0.4s1,0.1,1.8,0.1c1.1,0,2-0.2,2.7-0.6c0.7-0.4,1.2-1,1.6-1.7
		c0.4-0.7,0.5-1.7,0.5-2.7c0-1.1-0.2-2-0.6-2.8c-0.4-0.8-1-1.4-1.7-1.9c-0.7-0.4-1.6-0.7-2.7-0.7H8.3z M14.1,23.7
		c1.1,0.4,1.9,1,2.4,1.9s0.8,2,0.8,3.4c0,2.7-1.1,4.4-3.2,5.2c1.4-0.2,2.4-0.7,3.1-1.6c0.7-0.9,1.1-2.2,1.1-3.8
		c0-1.5-0.4-2.7-1.1-3.6S15.4,23.8,14.1,23.7z M14.3,22.7c2.4-0.6,3.6-2.3,3.6-4.9c0-0.8-0.1-1.6-0.4-2.3c-0.3-0.7-0.7-1.3-1.2-1.7
		s-1.2-0.7-2-0.8c0.9,0.4,1.5,1,2,1.9s0.7,1.9,0.7,3.2C16.9,20.3,16,21.9,14.3,22.7z"/>
	<path class="st1" d="M25.3,28V15.7c0-0.8-0.1-1.4-0.4-1.7c-0.2-0.3-0.6-0.6-1-0.7c-0.4-0.1-1.2-0.2-2.2-0.3v-0.9h10.7V13
		c-0.8,0.1-1.5,0.1-1.9,0.2c-0.4,0.1-0.7,0.3-1,0.7s-0.3,0.9-0.3,1.6v12.8c0,1.2,0.3,2.2,0.8,3.1c0.5,0.9,1.3,1.5,2.2,2
		s2.1,0.7,3.3,0.7c1.3,0,2.5-0.3,3.5-0.8s1.8-1.3,2.4-2.3s0.9-2.3,0.9-3.7v-7.4c0-1.7-0.1-3-0.4-3.9c-0.2-1-0.6-1.7-1.2-2.1
		c-0.6-0.4-1.4-0.7-2.4-0.7v-0.9h8.1V13c-0.9,0.1-1.6,0.5-2.1,1s-0.8,1.2-0.9,2.1c-0.2,0.9-0.2,2-0.2,3.2v8.3c0,1.1-0.2,2.2-0.6,3.1
		c-0.4,0.9-1,1.7-1.8,2.4c-0.8,0.7-1.7,1.2-2.9,1.5s-2.4,0.5-3.8,0.5c-3.4,0-5.9-1-7.5-2.9c-0.5-0.6-0.8-1.3-1-2S25.3,28.9,25.3,28z
		 M26.9,28V15.2c0-1.6-0.7-2.3-2.2-2.1c0.8,0.3,1.2,1.1,1.2,2.3v12.9c0,1.8,0.5,3.3,1.6,4.3s2.6,1.8,4.7,2.3c-0.8-0.4-1.5-0.7-2.1-1
		c-0.6-0.3-1.1-0.8-1.6-1.3c-0.5-0.5-0.9-1.1-1.2-1.9S26.9,29,26.9,28z M43.7,13h-3.2c1,0.5,1.6,1.3,1.8,2.5
		c0.1-0.6,0.3-1.1,0.5-1.5S43.3,13.3,43.7,13z"/>
	<path class="st1" d="M53.8,23.6v7.1c0,0.8,0.1,1.4,0.2,1.8c0.1,0.4,0.3,0.8,0.6,1c0.3,0.2,0.7,0.3,1.3,0.4s1.3,0.1,2.3,0.1
		c1.2,0,2.2-0.2,3.1-0.5c0.9-0.4,1.8-0.9,2.6-1.6c0.8-0.7,1.7-1.6,2.7-2.8h1.3l-2,5.8H46.4V34c0.9,0,1.7-0.1,2.1-0.2
		c0.5-0.1,0.8-0.4,1-0.7c0.2-0.3,0.3-0.8,0.3-1.4V15.6c0-0.8-0.1-1.3-0.3-1.6s-0.5-0.6-1-0.7c-0.5-0.1-1.2-0.2-2.2-0.3v-0.9H65
		l1.9,5.1h-1.1c-0.6-0.8-1.4-1.5-2.2-2.1s-1.9-1.2-3-1.5c-1.1-0.4-2.2-0.6-3.5-0.6c-1,0-1.7,0.1-2.2,0.3c-0.5,0.2-0.8,0.5-1,0.9
		c-0.2,0.4-0.2,0.9-0.2,1.5v7H57c2.8,0,4.2-1.3,4.2-3.9h1.1v8.5h-1c-0.1-1.3-0.5-2.3-1.1-2.9c-0.6-0.6-1.5-0.9-2.7-0.9H53.8z
		 M50.4,15.8v15.6c0,0.8-0.1,1.4-0.3,1.7c-0.2,0.4-0.4,0.7-0.8,0.9c0.9,0,1.4-0.2,1.7-0.7c0.3-0.5,0.4-1.2,0.4-2.2V15.5
		c0-0.9-0.2-1.5-0.5-1.8s-0.8-0.5-1.6-0.5c0.4,0.2,0.7,0.5,0.8,0.9S50.4,15,50.4,15.8z M61,24.7v-3.2c-0.4,0.7-1.2,1.2-2.2,1.6
		c0.6,0.2,1,0.4,1.4,0.6S60.8,24.2,61,24.7z M63.6,13h-2.9c0.8,0.3,1.5,0.6,2.1,1c0.6,0.4,1.3,0.8,1.9,1.4L63.6,13z M64.2,34
		l1.1-2.8c-0.6,0.7-1.2,1.2-1.7,1.5c-0.5,0.3-1.2,0.8-2.1,1.3H64.2z"/>
	<path class="st1" d="M83.5,13v-0.9H92V13c-0.7,0-1.3,0.2-1.9,0.5c-0.5,0.3-1,0.7-1.3,1.3c-0.3,0.6-0.5,1.3-0.5,2.1l0.3,18.5h-1
		L71.6,16.1l0.2,12.9c0,0.8,0.1,1.5,0.2,2c0.1,0.6,0.3,1,0.6,1.4s0.7,0.7,1.2,1c0.5,0.2,1.2,0.4,2,0.5v0.9h-8.4V34
		c1.1-0.1,1.9-0.4,2.4-0.9s0.9-1.2,1-1.9c0.1-0.8,0.2-1.7,0.1-2.9l-0.2-13.2c-0.6-0.7-1.2-1.2-1.8-1.5c-0.6-0.3-1.2-0.5-1.8-0.5H67
		v-0.9h6.5l14.2,16.9l-0.2-11.3c0-0.9-0.1-1.6-0.3-2.2s-0.5-1.1-0.9-1.5c-0.3-0.3-0.7-0.6-1.3-0.7S84,13,83.5,13z M86.6,31.5
		L72.4,14.5c-0.3-0.4-0.6-0.7-1.1-1s-1-0.5-1.7-0.5h-0.7c0.6,0.2,1,0.5,1.4,0.8c0.3,0.3,0.8,0.8,1.4,1.5l16.2,19.3
		c0-0.3,0-0.6,0-0.9c0-0.3-0.1-0.5-0.1-0.7c-0.1-0.1-0.2-0.3-0.3-0.5S87,32,86.6,31.5z M69.3,34h3.3c-0.5-0.4-0.8-0.7-1-1
		s-0.4-0.7-0.5-1.3c-0.1,0.5-0.3,0.9-0.6,1.3C70.3,33.4,69.8,33.7,69.3,34z M89.1,13h-3.5c0.5,0.2,1,0.4,1.3,0.8s0.6,0.8,0.8,1.3
		C88,14.2,88.4,13.5,89.1,13z"/>
	<path class="st1" d="M92.3,23.4c0-1,0.1-1.9,0.3-2.8c0.2-0.9,0.4-1.7,0.8-2.5c0.3-0.8,0.8-1.5,1.3-2.2s1.1-1.3,1.7-1.8
		c0.7-0.6,1.4-1,2.2-1.4s1.6-0.6,2.6-0.8c0.9-0.2,1.9-0.2,3-0.2c1.8,0,3.4,0.3,4.8,0.9c1.5,0.6,2.7,1.5,3.7,2.5s1.8,2.3,2.4,3.7
		c0.5,1.4,0.8,2.9,0.8,4.5c0,1.7-0.3,3.3-0.9,4.7s-1.5,2.7-2.6,3.8c-1.1,1.1-2.4,1.9-3.9,2.5c-1.5,0.6-3.1,0.9-4.8,0.9
		c-1.6,0-3.1-0.3-4.5-0.9S96.5,33,95.5,32c-1-1.1-1.8-2.3-2.4-3.8C92.6,26.7,92.3,25.1,92.3,23.4z M98.2,13.5
		c-1.7,1.1-3.1,2.5-4,4.2s-1.4,3.6-1.4,5.8c0,1.8,0.3,3.4,0.9,4.9c0.6,1.5,1.5,2.7,2.6,3.8c1.1,1,2.6,1.9,4.3,2.4
		c-2.1-1.1-3.7-2.6-4.9-4.4s-1.8-4.2-1.8-6.9c0-1.4,0.2-2.6,0.5-3.7c0.3-1.1,0.8-2.1,1.5-3.1S97.2,14.4,98.2,13.5z M96.7,21.7
		c0,1.9,0.2,3.6,0.6,5.2s0.9,2.9,1.6,4.1c0.7,1.1,1.5,2,2.5,2.6c1,0.6,2,0.9,3.1,0.9c0.9,0,1.8-0.2,2.7-0.6c0.8-0.4,1.6-1,2.2-1.9
		c0.6-0.8,1.1-1.9,1.5-3.1c0.4-1.2,0.5-2.6,0.5-4.2c0-1.8-0.2-3.4-0.6-4.9c-0.4-1.5-1-2.8-1.7-3.8c-0.7-1-1.6-1.9-2.5-2.4
		c-1-0.6-2-0.9-3.2-0.9c-1,0-1.9,0.2-2.7,0.6c-0.8,0.4-1.6,1-2.2,1.8c-0.6,0.8-1.1,1.8-1.4,2.9S96.7,20.3,96.7,21.7z M106.4,12.8
		c1.2,0.6,2.2,1.5,3,2.7c0.8,1.1,1.5,2.5,1.9,4.1s0.6,3.3,0.6,5.2c0,1.8-0.2,3.3-0.7,4.7c-0.5,1.3-1.2,2.5-2,3.5
		c0.9-0.7,1.6-1.4,2.1-2.3c0.6-0.8,1-1.8,1.2-2.9c0.3-1.1,0.4-2.3,0.4-3.6c0-1.9-0.3-3.7-0.8-5.3s-1.3-2.9-2.3-4
		C108.9,13.8,107.8,13.1,106.4,12.8z"/>
	<path class="st1" d="M117.7,26.7h1c0.6,1.7,1.3,3.1,2.1,4.3c0.8,1.2,1.7,2,2.7,2.6c1,0.6,2,0.8,3,0.8c1.3,0,2.4-0.4,3.4-1.3
		c0.9-0.8,1.4-1.9,1.4-3.2c0-1.2-0.3-2.2-0.9-2.9s-1.4-1.2-2.2-1.4c-0.9-0.3-2-0.5-3.4-0.8s-2.4-0.5-3-0.7c-0.9-0.3-1.7-0.8-2.3-1.3
		c-0.6-0.6-1.1-1.2-1.5-2c-0.3-0.8-0.5-1.6-0.5-2.5c0-0.9,0.1-1.7,0.4-2.5s0.7-1.5,1.2-2.1s1.2-1.1,2-1.5s1.6-0.5,2.6-0.5
		c0.7,0,1.5,0.1,2.5,0.3c1,0.2,1.7,0.3,2.2,0.3c0.6,0,1.1-0.1,1.6-0.4h1.2l0.7,6.6h-1.1c-1-2-2.1-3.5-3.2-4.5s-2.5-1.6-4-1.6
		c-0.8,0-1.5,0.2-2.1,0.5c-0.7,0.4-1.2,0.9-1.6,1.5c-0.4,0.6-0.6,1.3-0.6,2.1c0,1.1,0.4,1.9,1.1,2.5s1.8,1,3.2,1.3s2.7,0.5,3.8,0.7
		c1.1,0.2,2,0.5,2.6,0.8c1.2,0.6,2.1,1.4,2.8,2.5s1,2.3,1,3.6c0,1.3-0.3,2.5-0.9,3.6c-0.6,1.1-1.5,2-2.6,2.7c-1.1,0.7-2.3,1-3.7,1
		c-0.8,0-1.3-0.1-1.7-0.2c-0.4-0.1-1.1-0.3-2-0.7s-1.7-0.5-2.2-0.5c-0.8,0-1.5,0.3-2,1h-0.9V26.7z M118.2,16.4
		c-0.2,0.8-0.3,1.5-0.3,2c0,0.6,0.1,1.1,0.3,1.7c0.2,0.6,0.5,1.1,0.8,1.6s0.8,0.9,1.2,1.2c0.6,0.4,1.3,0.7,2.1,0.9
		c0.7,0.2,1.8,0.4,3.3,0.6c1.4,0.2,2.4,0.5,3,0.7c1,0.4,1.8,1,2.4,1.7c0.6,0.8,0.8,1.7,0.8,2.7c0,0.8-0.2,1.6-0.6,2.4
		c0.9-0.9,1.3-2,1.3-3.2c0-1.3-0.3-2.3-1-3c-0.6-0.7-1.4-1.3-2.4-1.6c-0.9-0.3-2.2-0.7-3.9-1s-2.5-0.4-2.5-0.5
		c-1.5-0.4-2.6-1.1-3.4-2.1c-0.8-1-1.2-2.1-1.2-3.4c0-0.2,0-0.4,0-0.6C118.2,16.7,118.2,16.5,118.2,16.4z M118.2,29.7V34
		c0.3-0.4,0.6-0.7,0.8-0.8s0.7-0.2,1.2-0.1c-0.3-0.4-0.6-0.7-0.8-0.9c-0.2-0.2-0.3-0.5-0.6-0.9C118.7,30.9,118.4,30.3,118.2,29.7z
		 M130.1,16.3l-0.5-3.1c-0.3,0.1-0.7,0.2-1,0.2c-0.4,0-0.8-0.1-1.2-0.2c0.4,0.3,0.8,0.6,1.1,0.9c0.3,0.3,0.6,0.8,1,1.2
		C129.7,15.9,130,16.2,130.1,16.3z"/>
</g>
<g class="st0">
	<path class="st1" d="M171.4,29h-8.5l-1.9,5.2h-4.2l8.4-22.1h3.8l8.3,22.1h-4.2L171.4,29z M163.9,25.9h6.3l-3.1-8.7h-0.1L163.9,25.9
		z"/>
	<path class="st1" d="M186.4,34.2h-4V12.1h4V34.2z"/>
	<path class="st1" d="M197.5,25v9.2h-4V12.1h8.3c2.7,0,4.8,0.6,6.2,1.7c1.5,1.1,2.2,2.7,2.2,4.8c0,1.1-0.3,2.1-1,3
		c-0.6,0.8-1.6,1.5-2.8,2c1.4,0.4,2.3,1,2.9,1.9c0.6,0.9,0.9,2,0.9,3.3v1.8c0,0.6,0.1,1.3,0.3,1.9c0.2,0.6,0.5,1.1,0.9,1.4v0.3h-4.1
		c-0.4-0.3-0.7-0.9-0.8-1.6c-0.1-0.7-0.2-1.4-0.2-2.1v-1.8c0-1.1-0.4-2-1.1-2.7c-0.7-0.7-1.7-1-2.9-1H197.5z M197.5,22.1h4.1
		c1.6,0,2.8-0.3,3.5-0.9c0.7-0.6,1.1-1.4,1.1-2.6c0-1.1-0.4-2-1.1-2.6c-0.7-0.6-1.8-0.9-3.3-0.9h-4.3V22.1z"/>
	<path class="st1" d="M230.2,24.2h-9.4v7h11.1v2.9h-15.1V12.1h15v3h-11v6.2h9.4V24.2z"/>
	<path class="st1" d="M249.9,28.5c0-0.9-0.4-1.7-1.1-2.3c-0.7-0.6-2-1.1-3.8-1.6c-2.6-0.7-4.6-1.5-6-2.6c-1.4-1.1-2.1-2.5-2.1-4.2
		c0-1.8,0.8-3.2,2.3-4.4c1.5-1.2,3.5-1.7,6-1.7c2.6,0,4.7,0.6,6.2,1.9c1.6,1.3,2.3,2.9,2.3,4.7l0,0.1h-3.9c0-1.2-0.4-2.1-1.3-2.8
		c-0.8-0.7-2-1-3.4-1c-1.4,0-2.4,0.3-3.1,0.9c-0.7,0.6-1.1,1.3-1.1,2.3c0,0.9,0.4,1.6,1.2,2.1c0.8,0.6,2.1,1.1,4,1.6
		c2.5,0.6,4.5,1.5,5.8,2.6c1.3,1.1,2,2.5,2,4.3c0,1.8-0.8,3.3-2.3,4.4c-1.6,1.1-3.6,1.6-6.2,1.6c-2.4,0-4.6-0.6-6.4-1.8
		c-1.8-1.2-2.7-2.9-2.6-5.1l0-0.1h3.9c0,1.3,0.5,2.3,1.5,3c1,0.7,2.2,1,3.6,1c1.4,0,2.5-0.3,3.3-0.8
		C249.5,30.2,249.9,29.4,249.9,28.5z"/>
</g>
<g class="st0">
	<path class="st2" d="M171.4,29h-8.5l-1.9,5.2h-4.2l8.4-22.1h3.8l8.3,22.1h-4.2L171.4,29z M163.9,25.9h6.3l-3.1-8.7h-0.1L163.9,25.9
		z"/>
	<path class="st2" d="M186.4,34.2h-4V12.1h4V34.2z"/>
	<path class="st2" d="M197.5,25v9.2h-4V12.1h8.3c2.7,0,4.8,0.6,6.2,1.7c1.5,1.1,2.2,2.7,2.2,4.8c0,1.1-0.3,2.1-1,3
		c-0.6,0.8-1.6,1.5-2.8,2c1.4,0.4,2.3,1,2.9,1.9c0.6,0.9,0.9,2,0.9,3.3v1.8c0,0.6,0.1,1.3,0.3,1.9c0.2,0.6,0.5,1.1,0.9,1.4v0.3h-4.1
		c-0.4-0.3-0.7-0.9-0.8-1.6c-0.1-0.7-0.2-1.4-0.2-2.1v-1.8c0-1.1-0.4-2-1.1-2.7c-0.7-0.7-1.7-1-2.9-1H197.5z M197.5,22.1h4.1
		c1.6,0,2.8-0.3,3.5-0.9c0.7-0.6,1.1-1.4,1.1-2.6c0-1.1-0.4-2-1.1-2.6c-0.7-0.6-1.8-0.9-3.3-0.9h-4.3V22.1z"/>
	<path class="st2" d="M230.2,24.2h-9.4v7h11.1v2.9h-15.1V12.1h15v3h-11v6.2h9.4V24.2z"/>
	<path class="st2" d="M249.9,28.5c0-0.9-0.4-1.7-1.1-2.3c-0.7-0.6-2-1.1-3.8-1.6c-2.6-0.7-4.6-1.5-6-2.6c-1.4-1.1-2.1-2.5-2.1-4.2
		c0-1.8,0.8-3.2,2.3-4.4c1.5-1.2,3.5-1.7,6-1.7c2.6,0,4.7,0.6,6.2,1.9c1.6,1.3,2.3,2.9,2.3,4.7l0,0.1h-3.9c0-1.2-0.4-2.1-1.3-2.8
		c-0.8-0.7-2-1-3.4-1c-1.4,0-2.4,0.3-3.1,0.9c-0.7,0.6-1.1,1.3-1.1,2.3c0,0.9,0.4,1.6,1.2,2.1c0.8,0.6,2.1,1.1,4,1.6
		c2.5,0.6,4.5,1.5,5.8,2.6c1.3,1.1,2,2.5,2,4.3c0,1.8-0.8,3.3-2.3,4.4c-1.6,1.1-3.6,1.6-6.2,1.6c-2.4,0-4.6-0.6-6.4-1.8
		c-1.8-1.2-2.7-2.9-2.6-5.1l0-0.1h3.9c0,1.3,0.5,2.3,1.5,3c1,0.7,2.2,1,3.6,1c1.4,0,2.5-0.3,3.3-0.8
		C249.5,30.2,249.9,29.4,249.9,28.5z"/>
</g>
<g class="st0">
	<path class="st1" d="M156.1,54.2v-10h3.3c1.4,0,2.5,0.4,3.3,1.2c0.8,0.8,1.3,1.8,1.3,3.1v1.4c0,1.3-0.4,2.3-1.3,3.1
		c-0.8,0.8-1.9,1.2-3.3,1.2H156.1z M157.5,45.3v7.8h1.9c1,0,1.7-0.3,2.3-0.9s0.8-1.4,0.8-2.3v-1.4c0-0.9-0.3-1.7-0.8-2.3
		c-0.6-0.6-1.3-0.9-2.3-0.9H157.5z"/>
	<path class="st1" d="M169.2,54.3c-1.1,0-2-0.3-2.6-1s-0.9-1.6-0.9-2.7v-0.3c0-1.1,0.3-1.9,1-2.6c0.7-0.7,1.4-1,2.4-1
		c1,0,1.8,0.3,2.4,0.9c0.5,0.6,0.8,1.4,0.8,2.5v0.7h-5l0,0c0,0.7,0.2,1.3,0.5,1.8c0.3,0.5,0.9,0.7,1.6,0.7c0.5,0,0.9-0.1,1.3-0.2
		c0.4-0.1,0.7-0.3,0.9-0.5l0.6,0.9c-0.3,0.3-0.7,0.5-1.1,0.6C170.4,54.2,169.9,54.3,169.2,54.3z M169,47.7c-0.5,0-0.9,0.2-1.2,0.5
		c-0.3,0.4-0.5,0.8-0.6,1.4l0,0h3.5v-0.1c0-0.5-0.1-1-0.4-1.3S169.6,47.7,169,47.7z"/>
	<path class="st1" d="M178.3,52.2c0-0.3-0.1-0.5-0.4-0.7c-0.2-0.2-0.7-0.4-1.4-0.5c-0.9-0.2-1.6-0.4-2.1-0.8
		c-0.5-0.3-0.7-0.8-0.7-1.4c0-0.6,0.3-1.1,0.8-1.5c0.5-0.4,1.2-0.6,2.1-0.6c0.9,0,1.6,0.2,2.2,0.7c0.6,0.5,0.8,1,0.8,1.6l0,0h-1.4
		c0-0.3-0.1-0.6-0.4-0.9c-0.3-0.3-0.7-0.4-1.1-0.4c-0.5,0-0.9,0.1-1.1,0.3s-0.4,0.5-0.4,0.8c0,0.3,0.1,0.5,0.3,0.7
		c0.2,0.2,0.7,0.3,1.3,0.4c1,0.2,1.7,0.5,2.2,0.8s0.7,0.8,0.7,1.4c0,0.7-0.3,1.2-0.8,1.6c-0.6,0.4-1.3,0.6-2.2,0.6
		c-1,0-1.8-0.2-2.4-0.7s-0.8-1-0.8-1.7l0,0h1.4c0,0.5,0.2,0.8,0.6,1c0.4,0.2,0.8,0.3,1.2,0.3c0.5,0,0.9-0.1,1.2-0.3
		C178.2,52.8,178.3,52.5,178.3,52.2z"/>
	<path class="st1" d="M188.2,50.8c0,1.1-0.3,1.9-0.8,2.6c-0.5,0.7-1.3,1-2.2,1c-0.5,0-0.9-0.1-1.3-0.2c-0.4-0.2-0.7-0.4-0.9-0.7V57
		h-1.4V46.8h1.1l0.2,1c0.3-0.4,0.6-0.6,1-0.8c0.4-0.2,0.8-0.3,1.3-0.3c1,0,1.7,0.4,2.3,1.1c0.5,0.7,0.8,1.7,0.8,2.9V50.8z
		 M186.8,50.6c0-0.8-0.2-1.5-0.5-2.1s-0.9-0.8-1.5-0.8c-0.4,0-0.8,0.1-1.1,0.3s-0.5,0.4-0.7,0.7v3.6c0.2,0.3,0.4,0.5,0.7,0.7
		c0.3,0.2,0.6,0.3,1.1,0.3c0.7,0,1.2-0.2,1.5-0.7c0.3-0.5,0.5-1.1,0.5-1.8V50.6z"/>
	<path class="st1" d="M194.9,53.1c-0.2,0.4-0.6,0.7-1,0.9c-0.4,0.2-0.8,0.3-1.3,0.3c-0.9,0-1.5-0.3-2-0.8s-0.7-1.3-0.7-2.4v-4.4h1.4
		v4.4c0,0.8,0.1,1.3,0.4,1.6c0.2,0.3,0.6,0.4,1.2,0.4c0.5,0,0.9-0.1,1.3-0.3c0.3-0.2,0.6-0.5,0.8-0.8v-5.3h1.4v7.4H195L194.9,53.1z"
		/>
	<path class="st1" d="M201.6,54.3c-1.1,0-2-0.3-2.6-1s-0.9-1.6-0.9-2.7v-0.3c0-1.1,0.3-1.9,1-2.6c0.7-0.7,1.4-1,2.4-1
		c1,0,1.8,0.3,2.4,0.9c0.5,0.6,0.8,1.4,0.8,2.5v0.7h-5l0,0c0,0.7,0.2,1.3,0.5,1.8c0.3,0.5,0.9,0.7,1.6,0.7c0.5,0,0.9-0.1,1.3-0.2
		c0.4-0.1,0.7-0.3,0.9-0.5l0.6,0.9c-0.3,0.3-0.7,0.5-1.1,0.6C202.8,54.2,202.3,54.3,201.6,54.3z M201.4,47.7c-0.5,0-0.9,0.2-1.2,0.5
		c-0.3,0.4-0.5,0.8-0.6,1.4l0,0h3.5v-0.1c0-0.5-0.1-1-0.4-1.3S202,47.7,201.4,47.7z M202,43.6h1.7l0,0l-2,1.8h-1.1L202,43.6z"/>
	<path class="st1" d="M210.7,52.2c0-0.3-0.1-0.5-0.4-0.7c-0.2-0.2-0.7-0.4-1.4-0.5c-0.9-0.2-1.6-0.4-2.1-0.8
		c-0.5-0.3-0.7-0.8-0.7-1.4c0-0.6,0.3-1.1,0.8-1.5c0.5-0.4,1.2-0.6,2.1-0.6c0.9,0,1.6,0.2,2.2,0.7c0.6,0.5,0.8,1,0.8,1.6l0,0h-1.4
		c0-0.3-0.1-0.6-0.4-0.9c-0.3-0.3-0.7-0.4-1.1-0.4c-0.5,0-0.9,0.1-1.1,0.3s-0.4,0.5-0.4,0.8c0,0.3,0.1,0.5,0.3,0.7
		c0.2,0.2,0.7,0.3,1.3,0.4c1,0.2,1.7,0.5,2.2,0.8s0.7,0.8,0.7,1.4c0,0.7-0.3,1.2-0.8,1.6c-0.6,0.4-1.3,0.6-2.2,0.6
		c-1,0-1.8-0.2-2.4-0.7s-0.8-1-0.8-1.7l0,0h1.4c0,0.5,0.2,0.8,0.6,1c0.4,0.2,0.8,0.3,1.2,0.3c0.5,0,0.9-0.1,1.2-0.3
		C210.6,52.8,210.7,52.5,210.7,52.2z"/>
</g>
<g class="st0">
	<path class="st1" d="M94.8,54.2l-1.1,0l0.1-6.2c0.1-1.3,0-2.3-0.3-3.1c-0.2-0.8-0.5-1.4-0.9-1.9c-0.2,0.3-0.4,0.7-0.8,1.2
		c-0.3,0.5-0.7,1.1-1.1,1.8c-0.4,0.7-0.8,1.4-1.3,2.1c-0.5,0.7-0.9,1.5-1.3,2.1c0.7,0.4,1.4,0.6,1.9,0.7s1,0.1,1.4,0.1
		c0.4,0,0.8-0.2,1.1-0.3l0,0.1l0,0.1c-0.5,0.3-1.1,0.5-1.7,0.7c-0.6,0.2-1.3,0.2-1.9,0.1c-0.2,0-0.5-0.1-0.7-0.2
		c-0.3-0.1-0.5-0.2-0.8-0.3c-0.5,0.8-0.9,1.4-1.2,2c-0.3,0.6-0.6,0.9-0.6,1c-0.3,0.4-0.6,0.8-0.9,1.1s-0.7,0.5-1.2,0.5
		c-0.5,0-0.8-0.2-1.1-0.5c-0.2-0.3-0.3-0.7-0.2-1.1h0.2c-0.1,0.3,0,0.5,0.1,0.7c0.1,0.2,0.4,0.3,0.7,0.3c0.2,0,0.3,0,0.4-0.1
		c0.1-0.1,0.3-0.2,0.4-0.3c0.1-0.1,0.2-0.2,0.3-0.3c0.1-0.1,0.2-0.2,0.3-0.3c0,0,0.1-0.1,0.2-0.3c0.1-0.2,0.3-0.4,0.4-0.7
		c0.2-0.3,0.4-0.6,0.6-1c0.2-0.4,0.5-0.8,0.8-1.3c-0.3-0.1-0.6-0.2-0.9-0.2s-0.5,0-0.7,0.2c-0.2,0.1-0.3,0.3-0.3,0.4s0,0.2,0,0.3
		c0.1,0.1,0.1,0.2,0.3,0.3L85,52c-0.1,0-0.2-0.1-0.3-0.2c-0.1-0.1-0.1-0.1-0.2-0.3c-0.1-0.1-0.1-0.3-0.1-0.4c0-0.2,0-0.4,0.1-0.6
		c0.1-0.2,0.2-0.4,0.4-0.6c0.2-0.2,0.5-0.3,0.9-0.3c0.4,0,0.9,0.1,1.5,0.3c0.5-0.8,1-1.5,1.5-2.4c0.5-0.8,1-1.6,1.4-2.3
		c0.4-0.7,0.8-1.3,1.1-1.8c0.3-0.5,0.5-0.9,0.7-1.1c-0.3-0.2-0.5-0.4-0.8-0.5c-0.3-0.1-0.5-0.2-0.8-0.2c-0.2,0-0.4-0.1-0.6-0.1
		c-0.2,0-0.3,0-0.4,0c-0.1,0-0.3,0-0.5,0c-0.2,0-0.5,0-0.8,0c-0.3,0-0.6,0.1-0.9,0.1c-0.3,0-0.6,0.1-0.9,0.2
		c-0.3,0.1-0.5,0.2-0.7,0.3c-0.2,0.1-0.3,0.3-0.4,0.5c-0.1,0.3-0.1,0.5,0,0.7c0.1,0.2,0.2,0.3,0.3,0.3c0.2,0.1,0.4,0.1,0.6,0.1
		l0,0.1c-0.4,0-0.7,0-1-0.1c-0.2-0.1-0.4-0.2-0.6-0.4s-0.2-0.5,0-0.9c0.1-0.3,0.3-0.5,0.6-0.7c0.3-0.2,0.7-0.3,1.1-0.4
		c0.4-0.1,0.9-0.2,1.4-0.2s0.9-0.1,1.4-0.1c0.4,0,0.8,0,1.1,0c0.3,0,0.5,0,0.6,0c0.1,0,0.2,0,0.5,0.1s0.6,0.1,0.9,0.3
		s0.7,0.3,1.1,0.6c0.4,0.3,0.7,0.7,1,1.1c0.3,0.5,0.5,1.1,0.7,1.8s0.2,1.6,0.2,2.7L94.8,54.2z"/>
	<path class="st1" d="M103.1,52.1c-0.1,0.2-0.2,0.4-0.3,0.6c-0.1,0.2-0.3,0.4-0.5,0.5c-0.2,0.1-0.4,0.3-0.6,0.3
		c-0.2,0.1-0.5,0.1-0.7,0.1c-0.4,0-0.7-0.1-0.9-0.3c-0.2-0.2-0.3-0.4-0.4-0.8c-0.2,0.3-0.5,0.6-0.8,0.8c-0.3,0.2-0.7,0.3-1.1,0.3
		c-0.2,0-0.4,0-0.6-0.1c-0.2-0.1-0.3-0.2-0.4-0.3c-0.1-0.1-0.2-0.3-0.2-0.5c0-0.2,0-0.4,0.1-0.6l1-3.3c0.1-0.3,0.1-0.5-0.1-0.7
		c-0.2-0.2-0.4-0.3-0.7-0.3c-0.3,0-0.6,0.1-0.8,0.3c-0.2,0.2-0.4,0.4-0.5,0.7h-0.2c0.1-0.2,0.2-0.4,0.3-0.6c0.1-0.2,0.3-0.4,0.5-0.5
		c0.2-0.1,0.4-0.3,0.6-0.3c0.2-0.1,0.5-0.1,0.7-0.1c0.4,0,0.7,0.1,0.9,0.3s0.4,0.4,0.4,0.7c0.2-0.3,0.5-0.6,0.8-0.7s0.7-0.3,1-0.3
		c0.5,0,0.8,0.2,1.1,0.5c0.2,0.3,0.3,0.7,0.2,1.1l-1,3.3c-0.1,0.3-0.1,0.5,0.1,0.7c0.1,0.2,0.4,0.3,0.7,0.3c0.3,0,0.6-0.1,0.8-0.3
		c0.3-0.2,0.4-0.4,0.5-0.7H103.1z M98.5,53.1c0.3,0,0.5-0.1,0.7-0.2c0.2-0.1,0.4-0.3,0.5-0.6c0,0,0-0.1,0-0.1c0,0,0-0.1,0-0.1l1-3.3
		c0.1-0.3,0.1-0.5-0.1-0.7c-0.2-0.2-0.4-0.3-0.7-0.3c-0.3,0-0.5,0.1-0.7,0.2s-0.4,0.3-0.5,0.5c0,0,0,0.1,0,0.1c0,0,0,0.1,0,0.1
		l-1,3.3c-0.1,0.3-0.1,0.5,0.1,0.7C97.9,53,98.2,53.1,98.5,53.1z"/>
	<path class="st1" d="M105.3,53.1c0.3,0,0.6-0.1,0.8-0.3c0.3-0.2,0.4-0.4,0.5-0.7h0.2c-0.1,0.2-0.2,0.4-0.3,0.6
		c-0.1,0.2-0.3,0.4-0.5,0.5c-0.2,0.1-0.4,0.3-0.6,0.3c-0.2,0.1-0.5,0.1-0.7,0.1c-0.5,0-0.8-0.2-1.1-0.5c-0.2-0.3-0.3-0.7-0.2-1.1
		l1.1-3.5l-0.9-0.2l1.1-0.7l1.4-4.6c0.1-0.3,0-0.5-0.1-0.7c-0.1-0.2-0.4-0.3-0.7-0.3s-0.6,0.1-0.8,0.3c-0.3,0.2-0.4,0.4-0.5,0.7H104
		c0.1-0.2,0.2-0.4,0.3-0.6s0.3-0.4,0.5-0.5c0.2-0.1,0.4-0.3,0.6-0.3c0.2-0.1,0.5-0.1,0.7-0.1c0.5,0,0.8,0.2,1,0.5s0.3,0.7,0.2,1.1
		l-1.3,4.4c0.2-0.1,0.4-0.1,0.7-0.1c0.5,0,0.8,0.2,1.1,0.5c0.2,0.3,0.3,0.7,0.1,1.1h-0.2c0.1-0.3,0.1-0.5-0.1-0.7
		c-0.1-0.2-0.4-0.3-0.7-0.3c-0.3,0-0.6,0.1-0.8,0.3c-0.3,0.2-0.4,0.4-0.5,0.7h0l-1,3.3c-0.1,0.3-0.1,0.5,0.1,0.7
		C104.8,53,105,53.1,105.3,53.1z"/>
	<path class="st1" d="M112.6,51.7c-0.1,0.3-0.3,0.6-0.5,0.8s-0.5,0.5-0.7,0.6s-0.6,0.3-0.9,0.4c-0.3,0.1-0.7,0.1-1,0.1
		c-0.3,0-0.6-0.1-0.9-0.2c-0.3-0.1-0.5-0.3-0.7-0.5c-0.2-0.2-0.3-0.4-0.4-0.7c-0.1-0.3-0.1-0.5,0-0.8l0.7-2.2
		c0.1-0.3,0.2-0.6,0.4-0.8c0.2-0.3,0.4-0.5,0.7-0.7c0.3-0.2,0.5-0.3,0.9-0.5s0.6-0.2,0.9-0.2c0.2,0,0.4,0,0.6,0.1
		c0.2,0.1,0.3,0.2,0.5,0.3s0.2,0.3,0.3,0.4c0.1,0.2,0.1,0.3,0,0.5c-0.1,0.5-0.3,0.9-0.6,1.2s-0.6,0.5-1,0.7
		c-0.4,0.2-0.8,0.3-1.1,0.5c-0.4,0.2-0.8,0.4-1.1,0.7v0c-0.1,0.2-0.1,0.4,0,0.6c0.1,0.2,0.2,0.3,0.3,0.5c0.1,0.1,0.3,0.2,0.5,0.3
		c0.2,0.1,0.4,0.1,0.6,0.1c0.2,0,0.4,0,0.7-0.1c0.3-0.1,0.5-0.2,0.7-0.3c0.2-0.1,0.4-0.3,0.6-0.5c0.2-0.2,0.3-0.4,0.4-0.6H112.6z
		 M111.3,47.7c-0.2,0-0.4,0-0.6,0.1c-0.2,0.1-0.4,0.2-0.6,0.3c-0.2,0.1-0.3,0.3-0.5,0.5s-0.2,0.4-0.3,0.6l-0.6,2
		c0.4-0.3,0.8-0.5,1.1-0.6c0.4-0.2,0.8-0.3,1.1-0.5c0.3-0.2,0.6-0.4,0.8-0.6c0.2-0.2,0.3-0.6,0.4-1c0-0.2-0.1-0.4-0.2-0.6
		C111.7,47.8,111.5,47.7,111.3,47.7z"/>
	<path class="st1" d="M119.7,52.1c-0.1,0.2-0.2,0.4-0.3,0.6c-0.1,0.2-0.3,0.4-0.5,0.5c-0.2,0.1-0.4,0.3-0.6,0.3
		c-0.2,0.1-0.5,0.1-0.7,0.1c-0.2,0-0.4,0-0.6-0.1c-0.2-0.1-0.3-0.2-0.4-0.3c-0.4,0.3-0.9,0.4-1.5,0.4c-0.5,0-0.9-0.1-1.1-0.3
		c-0.2-0.2-0.3-0.5-0.4-0.7c-0.1-0.3,0-0.7,0.1-1h0.1c0,0,0.1,0,0.1,0c-0.1,0.4,0,0.7,0.2,0.9c0.2,0.2,0.4,0.4,0.7,0.4
		c0.3,0.1,0.6,0,0.9-0.1c0.3-0.1,0.5-0.3,0.7-0.6c0.1-0.3,0.1-0.5,0-0.7c-0.1-0.2-0.3-0.4-0.5-0.7s-0.4-0.5-0.6-0.7
		s-0.3-0.5-0.4-0.9c0-0.2,0-0.3,0-0.5s0.1-0.3,0.2-0.4c0.1-0.1,0.2-0.2,0.4-0.3c0.1-0.1,0.3-0.2,0.5-0.3c0.4-0.2,0.8-0.4,1.3-0.5
		l0.1,0.2c-0.5,0.2-0.8,0.4-1.1,0.6c-0.2,0.2-0.3,0.5-0.3,0.8c0,0.3,0.2,0.7,0.7,1.1c0.5,0.4,0.8,0.8,0.9,1.2s0.1,0.8,0,1.1
		c0,0.2,0,0.4,0.2,0.6c0.1,0.2,0.3,0.2,0.6,0.2c0.3,0,0.6-0.1,0.8-0.3c0.3-0.2,0.4-0.4,0.5-0.7H119.7z"/>
	<path class="st1" d="M133.4,52.1c-0.1,0.2-0.2,0.4-0.3,0.6c-0.1,0.2-0.3,0.4-0.5,0.5c-0.2,0.1-0.4,0.3-0.6,0.3
		c-0.2,0.1-0.5,0.1-0.7,0.1c-0.2,0-0.4,0-0.6-0.1l-0.7,2.4c-0.1,0.3-0.2,0.6-0.4,0.8c-0.2,0.3-0.4,0.5-0.7,0.7
		c-0.3,0.2-0.6,0.3-0.9,0.5s-0.6,0.2-0.9,0.2s-0.6-0.1-0.8-0.2c-0.2-0.1-0.4-0.3-0.6-0.5c-0.1-0.2-0.2-0.4-0.3-0.7s0-0.5,0.1-0.8
		l0.3,0.2c-0.1,0.4-0.1,0.7,0.1,1c0.2,0.3,0.5,0.4,0.9,0.4c0.2,0,0.4,0,0.6-0.1c0.2-0.1,0.4-0.2,0.6-0.3c0.2-0.1,0.3-0.3,0.5-0.5
		c0.1-0.2,0.2-0.4,0.3-0.6l1-3.3c-0.2,0.2-0.5,0.4-0.8,0.6c-0.3,0.2-0.6,0.2-0.9,0.2c-0.2,0-0.4,0-0.6-0.1c-0.2-0.1-0.3-0.2-0.4-0.3
		c-0.1-0.1-0.2-0.3-0.2-0.5c0-0.2,0-0.4,0.1-0.6l1-3.3c0.1-0.3,0.1-0.5-0.1-0.7c-0.1-0.2-0.4-0.3-0.7-0.3c-0.3,0-0.6,0.1-0.8,0.3
		c-0.3,0.2-0.4,0.4-0.5,0.7h-0.2c0.1-0.2,0.2-0.4,0.3-0.6c0.1-0.2,0.3-0.4,0.5-0.5c0.2-0.1,0.4-0.3,0.6-0.3s0.4-0.1,0.7-0.1
		c0.5,0,0.8,0.2,1.1,0.5c0.2,0.3,0.3,0.7,0.2,1.1l-1,3.3c-0.1,0.3-0.1,0.5,0.1,0.7c0.1,0.2,0.4,0.3,0.7,0.3c0.2,0,0.5-0.1,0.7-0.2
		c0.2-0.1,0.4-0.3,0.5-0.5l1.6-5.2h1.1l-1.4,4.6l-0.1,0.3c-0.1,0.3-0.1,0.5,0.1,0.7c0.1,0.2,0.4,0.3,0.7,0.3s0.6-0.1,0.8-0.3
		c0.3-0.2,0.4-0.4,0.5-0.7H133.4z"/>
</g>
<path class="st3" d="M99.7,56.2v-3.6c0.1-0.7,0.1-1.4,0-2.1c-0.2-0.4-0.7,0.5-0.7,0.5l-1,0.2c0,0-0.5-0.2,0,1.3c0.6,2-1,0.5-1,0.5
	l-0.3,2.4L99.7,56.2z"/>
<line class="st2" x1="144.9" y1="0" x2="144.9" y2="60.7"/>
<path class="st4" d="M144.9,15.9L144.9,15.9c1.9,0,3.5,1.6,3.5,3.5v20.3c0,1.9-1.6,3.5-3.5,3.5l0,0c-1.9,0-3.5-1.6-3.5-3.5V19.4
	C141.5,17.5,143,15.9,144.9,15.9z"/>
<line class="st2" x1="146.3" y1="24.1" x2="146.3" y2="36"/>
<line class="st2" x1="143.8" y1="24.1" x2="143.8" y2="36"/>
</svg>
